<svg xmlns="http://www.w3.org/2000/svg" id="Layer_1" viewBox="0 0 24 24"><style>.st0{fill:#95D600;} .st1{fill:#424142;} .st2{fill:#414042;}</style><path d="M12 23.75c-4.1 0-8.16-1.1-11.75-3.16C.3 12.25 4.8 4.5 12 .3c7.2 4.2 11.7 11.96 11.75 20.3-3.6 2.06-7.65 3.15-11.75 3.15z" class="st0"/><path d="M12 .58c7.02 4.16 11.4 11.73 11.5 19.87-3.52 2-7.5 3.05-11.5 3.05S4.02 22.45.5 20.45C.6 12.3 4.98 4.75 12 .58M12 0C4.84 4.13 0 11.86 0 20.74 3.53 22.8 7.62 24 12 24s8.47-1.2 12-3.26C24 11.86 19.16 4.14 12 0z" class="st1"/><g><path d="M13.46 12.7v.14c2.5.3 3.54 1.72 3.54 3.28 0 1.86-1.54 3.2-4.52 3.2H7.1c-.06 0-.1-.06-.1-.26s.04-.27.1-.27h.88c.5 0 .56-.06.56-.57V8.26c0-.5-.05-.55-.56-.55h-.84c-.07 0-.1-.06-.1-.26s.03-.27.1-.27h4.82c2.86 0 4.2 1.2 4.2 2.87 0 1.2-.86 2.4-2.7 2.67zm0-4.5c-.36-.34-.86-.5-1.6-.5h-.8c-.5 0-.55.06-.55.56v4.33h1.32c.76 0 1.3-.23 1.7-.64.34-.33.6-.93.6-1.85 0-1.06-.4-1.62-.66-1.9zm.6 5.62c-.45-.45-1.04-.67-2.07-.67h-1.5v5.08c0 .5.06.56.56.56h1.23c.85 0 1.48-.32 1.8-.64.4-.4.77-1 .77-2.1 0-1-.35-1.78-.8-2.24z" class="st2"/></g></svg>
